<?xml version="1.0" standalone="no"?>
<!DOCTYPE svg PUBLIC "-//W3C//DTD SVG 20010904//EN"
 "http://www.w3.org/TR/2001/REC-SVG-20010904/DTD/svg10.dtd">
<svg version="1.0" xmlns="http://www.w3.org/2000/svg"
 width="1200.000000pt" height="1200.000000pt" viewBox="0 0 1200.000000 1200.000000"
 preserveAspectRatio="xMidYMid meet">

<g transform="translate(0.000000,1200.000000) scale(0.100000,-0.100000)"
fill="#000000" stroke="none">
<path d="M5400 8020 c-417 -51 -765 -233 -930 -486 -104 -159 -157 -349 -181
-651 l-12 -148 -61 -126 c-49 -102 -66 -128 -86 -134 -45 -12 -99 -56 -120
-99 -18 -39 -20 -61 -20 -270 0 -201 2 -231 19 -264 12 -25 20 -70 25 -139 12
-198 88 -574 191 -947 30 -109 56 -200 58 -202 1 -2 25 3 52 11 26 8 53 15 59
15 6 0 -18 -29 -54 -65 l-64 -65 -23 22 -23 22 22 25 23 25 -30 -18 c-45 -28
-85 -67 -102 -101 -14 -28 -12 -27 29 13 l44 42 22 -23 22 -24 -64 -61 c-35
-34 -73 -62 -84 -62 -15 0 -26 -18 -51 -79 -17 -44 -31 -87 -31 -96 0 -9 -4
-25 -10 -35 -9 -18 16 -18 774 -20 l784 -1 -24 113 c-13 62 -31 145 -40 185
l-16 72 -204 171 c-112 94 -204 173 -204 175 0 2 12 30 26 62 14 32 34 79 44
104 l19 47 -72 48 c-273 181 -420 354 -497 582 -27 80 -30 103 -30 210 0 110
3 129 31 205 37 103 117 241 203 350 125 159 200 212 381 268 302 93 416 132
512 178 197 95 306 189 420 362 35 54 69 99 74 99 14 0 60 -68 165 -243 167
-277 249 -461 295 -655 17 -72 19 -121 19 -383 l0 -300 -30 -78 c-36 -92 -152
-266 -199 -298 -18 -12 -79 -37 -134 -55 -60 -19 -115 -44 -135 -60 -68 -58
-110 -72 -207 -72 -62 0 -102 5 -127 16 -38 17 -38 17 -38 -6 0 -34 40 -88 80
-108 26 -14 60 -18 135 -18 l100 -1 -32 -25 -31 -25 44 -95 c24 -53 44 -99 44
-104 0 -5 -91 -86 -202 -180 l-203 -170 -41 -185 -41 -185 793 0 793 0 -39
115 c-69 206 -108 270 -200 335 l-22 15 16 306 c9 168 16 397 17 510 0 156 4
223 18 284 l17 80 63 16 c71 19 114 53 142 114 16 35 19 67 19 253 0 170 -3
220 -16 250 -18 45 -57 87 -93 102 l-28 11 -12 172 c-32 468 -149 675 -503
892 -67 41 -120 85 -188 156 -105 108 -176 158 -302 212 -223 96 -522 143
-738 117z m-892 -1434 l27 -14 -7 -153 c-16 -327 -55 -480 -157 -602 l-41 -49
-2 364 c-2 262 0 372 9 395 22 61 109 91 171 59z m2372 -2 c60 -36 60 -36 60
-445 0 -369 0 -372 -20 -354 -37 34 -99 141 -124 216 -29 86 -51 246 -61 435
-7 130 -7 131 16 148 30 21 93 21 129 0z m-2268 -2011 c21 -20 38 -41 38 -45
0 -4 -17 -8 -38 -8 -31 0 -45 7 -75 38 -41 42 -39 52 7 52 21 0 41 -11 68 -37z
m-204 -55 c18 -18 15 -27 -15 -39 -35 -13 -64 11 -43 35 15 19 41 21 58 4z"/>
<path d="M5918 5313 c6 -2 18 -2 25 0 6 3 1 5 -13 5 -14 0 -19 -2 -12 -5z"/>
<path d="M6128 5313 c6 -2 18 -2 25 0 6 3 1 5 -13 5 -14 0 -19 -2 -12 -5z"/>
<path d="M5875 5300 c-3 -6 1 -7 9 -4 18 7 21 14 7 14 -6 0 -13 -4 -16 -10z"/>
<path d="M6171 5306 c2 -2 15 -9 29 -15 24 -11 24 -11 6 3 -16 13 -49 24 -35
12z"/>
<path d="M8359 4208 c-134 -150 -269 -300 -299 -333 -146 -158 -201 -225 -188
-229 7 -2 69 -9 138 -15 69 -7 224 -23 345 -36 541 -59 615 -67 625 -63 5 1
-34 37 -88 78 -156 120 -313 243 -343 270 l-28 25 24 160 c13 88 33 216 44
285 11 68 19 126 17 127 -1 2 -113 -120 -247 -269z"/>
<path d="M3810 3456 c0 -2 -36 -125 -81 -273 -192 -639 -236 -850 -195 -946
20 -48 94 -111 185 -157 44 -22 85 -40 90 -40 7 0 10 249 11 710 0 391 -2 710
-5 710 -3 0 -5 -2 -5 -4z"/>
<path d="M7441 2753 c-1 -524 2 -713 10 -713 7 0 52 21 101 47 101 54 160 111
179 173 27 90 -23 324 -187 869 -48 157 -90 297 -94 311 -5 14 -9 -296 -9
-687z"/>
</g>
</svg>
