<?xml version="1.0" standalone="no"?>
<!DOCTYPE svg PUBLIC "-//W3C//DTD SVG 20010904//EN"
 "http://www.w3.org/TR/2001/REC-SVG-20010904/DTD/svg10.dtd">
<svg version="1.0" xmlns="http://www.w3.org/2000/svg"
 width="50.000000pt" height="50.000000pt" viewBox="0 0 50.000000 50.000000"
 preserveAspectRatio="xMidYMid meet">

<g transform="translate(0.000000,50.000000) scale(0.100000,-0.100000)"
fill="#000000" stroke="none">
<path d="M77 444 c-4 -4 -7 -25 -7 -48 0 -27 -9 -52 -26 -78 -29 -41 -26 -68
5 -68 15 0 26 14 42 50 18 43 25 50 49 50 28 0 28 -1 18 -36 -8 -30 -7 -40 6
-53 25 -25 50 -3 54 48 3 38 5 41 32 41 27 0 29 -3 32 -41 4 -51 29 -73 54
-48 13 13 14 23 6 53 -10 35 -10 36 18 36 24 0 31 -7 49 -50 16 -36 27 -50 42
-50 31 0 34 28 8 63 -14 20 -26 51 -29 82 l-5 50 -171 3 c-93 1 -173 -1 -177
-4z m48 -54 c-5 -8 -11 -8 -17 -2 -6 6 -7 16 -3 22 5 8 11 8 17 2 6 -6 7 -16
3 -22z m70 0 c-5 -8 -11 -8 -17 -2 -6 6 -7 16 -3 22 5 8 11 8 17 2 6 -6 7 -16
3 -22z"/>
<path d="M70 147 c0 -43 5 -78 12 -85 17 -17 319 -17 336 0 7 7 12 42 12 85 0
57 -3 73 -15 73 -11 0 -15 -16 -17 -67 l-3 -68 -145 0 -145 0 -3 68 c-2 51 -6
67 -17 67 -12 0 -15 -16 -15 -73z"/>
</g>
</svg>
